<svg id="Capa_1" data-name="Capa 1" xmlns="http://www.w3.org/2000/svg" viewBox="0 0 80 60"><defs><style>.cls-1{fill:#ff0050;}.cls-2{fill:#fff;}</style></defs><title>logo_atix-02</title><path class="cls-1" d="M40.33,49.79H7.5a.57.57,0,0,0-.57.57v3.26a.57.57,0,0,0,.57.57H40.33a.57.57,0,0,0,.57-.57V50.36a.57.57,0,0,0-.57-.57"/><path class="cls-1" d="M16,41h3.91a.24.24,0,0,0,.23-.2l6-34.69a.24.24,0,0,0-.2-.28H22a.24.24,0,0,0-.24.2l-6,34.69A.24.24,0,0,0,16,41h0"/><path class="cls-1" d="M7.17,41h3.91a.24.24,0,0,0,.24-.2l6-34.69a.24.24,0,0,0-.2-.28h-4a.24.24,0,0,0-.24.2l-6,34.69a.24.24,0,0,0,.2.28h0"/><path class="cls-2" d="M34.7,5.81h-4a.24.24,0,0,0-.23.2l-6,34.7a.24.24,0,0,0,.2.28h4a.24.24,0,0,0,.23-.2l3.58-21.73a.24.24,0,0,1,.47,0l3.58,21.73a.24.24,0,0,0,.23.2h3.94a.24.24,0,0,0,.23-.25v0L34.93,6a.24.24,0,0,0-.23-.2"/><path class="cls-2" d="M51.11,5.81H37.42a.23.23,0,0,0-.23.23h0v4a.23.23,0,0,0,.23.23h4.39a.23.23,0,0,1,.23.23V40.75a.23.23,0,0,0,.23.23h4a.23.23,0,0,0,.23-.23V10.49a.23.23,0,0,1,.23-.23h4.39a.23.23,0,0,0,.23-.23V6a.23.23,0,0,0-.22-.24h0"/><path class="cls-2" d="M56.27,5.81H53a.57.57,0,0,0-.57.57v34a.57.57,0,0,0,.52.62h3.31a.57.57,0,0,0,.57-.57v-34a.57.57,0,0,0-.57-.57"/><path class="cls-2" d="M68.47,23.46a.24.24,0,0,1,0-.12L73.06,6.11a.24.24,0,0,0-.17-.29H68.42a.24.24,0,0,0-.23.18L65.74,16.3a.24.24,0,0,1-.46,0L62.82,6a.24.24,0,0,0-.23-.18H58.18a.24.24,0,0,0-.23.3l4.59,17.22a.23.23,0,0,1,0,.12L58,40.69a.24.24,0,0,0,.17.29H62.6a.24.24,0,0,0,.23-.18L65.27,30.5a.24.24,0,0,1,.46,0l2.46,10.3a.24.24,0,0,0,.23.18h4.42a.24.24,0,0,0,.23-.3Z"/></svg>